Coordinates
version=1
nRows=19
nColumns=24
inDegrees=yes

Units are S.I. units (second, meters, Newtons, ...)
Angles are in degrees.

endheader
time	pelvis_tilt	pelvis_list	pelvis_rotation	pelvis_tx	pelvis_ty	pelvis_tz	hip_flexion_r	hip_adduction_r	hip_rotation_r	knee_angle_r	ankle_angle_r	subtalar_angle_r	mtp_angle_r	hip_flexion_l	hip_adduction_l	hip_rotation_l	knee_angle_l	ankle_angle_l	subtalar_angle_l	mtp_angle_l	lumbar_extension	lumbar_bending	lumbar_rotation
      2.08000000	     38.92636888	      1.95701806	     -3.14849428	      0.68389427	      1.06925148	     -0.32882827	     38.83760286	     -4.66503994	      2.22671789	    -25.78120200	    -31.56858532	      0.00000000	      0.00000000	     27.53573975	    -15.58209728	     -6.74648786	    -68.48284873	    -14.41293722	      0.00000000	      0.00000000	      0.00000000	      0.00000000	      0.00000000
      2.09000000	     38.93567052	      1.95655473	     -3.14671136	      0.68388134	      1.06925770	     -0.32884571	     38.82791706	     -4.66758975	      2.22223357	    -25.77489631	    -31.56584692	      0.00000000	      0.00000000	     27.52587338	    -15.58069669	     -6.74673007	    -68.48189898	    -14.41999268	      0.00000000	      0.00000000	      0.00000000	      0.00000000	      0.00000000
      2.10000000	     38.94595207	      1.95563154	     -3.14445534	      0.68386731	      1.06926442	     -0.32887219	     38.81767493	     -4.67078498	      2.21759184	    -25.76874993	    -31.56292209	      0.00000000	      0.00000000	     27.51491066	    -15.57821313	     -6.74739662	    -68.48301775	    -14.42953471	      0.00000000	      0.00000000	      0.00000000	      0.00000000	      0.00000000
      2.11000000	     38.95528870	      1.95432788	     -3.14211908	      0.68385812	      1.06926823	     -0.32889641	     38.80851550	     -4.67332696	      2.21370327	    -25.76286445	    -31.56060271	      0.00000000	      0.00000000	     27.50448982	    -15.57515315	     -6.74843148	    -68.48580971	    -14.44005080	      0.00000000	      0.00000000	      0.00000000	      0.00000000	      0.00000000
      2.12000000	     38.96255804	      1.95286998	     -3.14025250	      0.68385578	      1.06926605	     -0.32891169	     38.80136526	     -4.67419756	      2.21120482	    -25.75732532	    -31.55947260	      0.00000000	      0.00000000	     27.49623846	    -15.57237635	     -6.74934267	    -68.48938453	    -14.44941627	      0.00000000	      0.00000000	      0.00000000	      0.00000000	      0.00000000
      2.13000000	     38.96741797	      1.95137467	     -3.13932082	      0.68385499	      1.06926313	     -0.32891604	     38.79648702	     -4.67298722	      2.21029743	    -25.75222785	    -31.55971690	      0.00000000	      0.00000000	     27.49118233	    -15.57064361	     -6.74958134	    -68.49284036	    -14.45570563	      0.00000000	      0.00000000	      0.00000000	      0.00000000	      0.00000000
      2.14000000	     38.96993480	      1.94965832	     -3.13936078	      0.68384941	      1.06926807	     -0.32891089	     38.79374514	     -4.66986532	      2.21064763	    -25.74768591	    -31.56110927	      0.00000000	      0.00000000	     27.48913703	    -15.57013092	     -6.74888512	    -68.49580636	    -14.45793738	      0.00000000	      0.00000000	      0.00000000	      0.00000000	      0.00000000
      2.15000000	     38.97049833	      1.94743008	     -3.13997587	      0.68384226	      1.06927869	     -0.32890397	     38.79274612	     -4.66544133	      2.21146447	    -25.74388744	    -31.56315278	      0.00000000	      0.00000000	     27.48890879	    -15.57042211	     -6.74731803	    -68.49844218	    -14.45630308	      0.00000000	      0.00000000	      0.00000000	      0.00000000	      0.00000000
      2.16000000	     38.96996366	      1.94457133	     -3.14058569	      0.68384041	      1.06928467	     -0.32890402	     38.79283226	     -4.66074035	      2.21181126	    -25.74111987	    -31.56527409	      0.00000000	      0.00000000	     27.48918933	    -15.57083881	     -6.74514177	    -68.50109125	    -14.45190160	      0.00000000	      0.00000000	      0.00000000	      0.00000000	      0.00000000
      2.17000000	     38.96951402	      1.94127973	     -3.14054574	      0.68384222	      1.06928357	     -0.32891167	     38.79313352	     -4.65709135	      2.21101458	    -25.73963173	    -31.56698652	      0.00000000	      0.00000000	     27.48921742	    -15.57078726	     -6.74274514	    -68.50405729	    -14.44626439	      0.00000000	      0.00000000	      0.00000000	      0.00000000	      0.00000000
      2.18000000	     38.97012275	      1.93816482	     -3.13917966	      0.68384131	      1.06928401	     -0.32892269	     38.79272191	     -4.65564628	      2.20893001	    -25.73940261	    -31.56797959	      0.00000000	      0.00000000	     27.48875324	    -15.56999278	     -6.74060503	    -68.50751967	    -14.44087895	      0.00000000	      0.00000000	      0.00000000	      0.00000000	      0.00000000
      2.19000000	     38.97208319	      1.93605654	     -3.13605025	      0.68383826	      1.06929270	     -0.32893354	     38.79085881	     -4.65678598	      2.20595271	    -25.73998398	    -31.56811716	      0.00000000	      0.00000000	     27.48772153	    -15.56850853	     -6.73925293	    -68.51147029	    -14.43681597	      0.00000000	      0.00000000	      0.00000000	      0.00000000	      0.00000000
      2.20000000	     38.97515734	      1.93545089	     -3.13148182	      0.68383934	      1.06930554	     -0.32894018	     38.78736558	     -4.65989378	      2.20282425	    -25.74047153	    -31.56737511	      0.00000000	      0.00000000	     27.48604370	    -15.56655984	     -6.73924115	    -68.51567560	    -14.43452108	      0.00000000	      0.00000000	      0.00000000	      0.00000000	      0.00000000
      2.21000000	     38.97901351	      1.93610239	     -3.12685836	      0.68384452	      1.06931243	     -0.32893976	     38.78284078	     -4.66365783	      2.20034373	    -25.73967253	    -31.56581559	      0.00000000	      0.00000000	     27.48366805	    -15.56447405	     -6.74101695	    -68.51972073	    -14.43380159	      0.00000000	      0.00000000	      0.00000000	      0.00000000	      0.00000000
      2.22000000	     38.98330213	      1.93720742	     -3.12416522	      0.68384572	      1.06930994	     -0.32893656	     38.77835708	     -4.66666707	      2.19910790	    -25.73651373	    -31.56367168	      0.00000000	      0.00000000	     27.48060919	    -15.56273105	     -6.74472824	    -68.52314648	    -14.43399922	      0.00000000	      0.00000000	      0.00000000	      0.00000000	      0.00000000
      2.23000000	     38.98746192	      1.93794793	     -3.12482320	      0.68383821	      1.06930466	     -0.32893765	     38.77479567	     -4.66795307	      2.19940242	    -25.73051943	    -31.56150539	      0.00000000	      0.00000000	     27.47699761	    -15.56185112	     -6.75015023	    -68.52562947	    -14.43428790	      0.00000000	      0.00000000	      0.00000000	      0.00000000	      0.00000000
      2.24000000	     38.99079709	      1.93795236	     -3.12870291	      0.68382722	      1.06930143	     -0.32894145	     38.77239329	     -4.66727801	      2.20127435	    -25.72202218	    -31.56032182	      0.00000000	      0.00000000	     27.47320119	    -15.56214955	     -6.75674186	    -68.52707228	    -14.43396717	      0.00000000	      0.00000000	      0.00000000	      0.00000000	      0.00000000
      2.25000000	     38.99285815	      1.93748044	     -3.13423670	      0.68381898	      1.06929865	     -0.32894217	     38.77088549	     -4.66510997	      2.20468509	    -25.71191661	    -31.56151475	      0.00000000	      0.00000000	     27.46988867	    -15.56371899	     -6.76363332	    -68.52752068	    -14.43262665	      0.00000000	      0.00000000	      0.00000000	      0.00000000	      0.00000000
      2.26000000	     38.99356895	      1.93703528	     -3.13941586	      0.68381310	      1.06929637	     -0.32893874	     38.77007446	     -4.66229842	      2.20959725	    -25.70112888	    -31.56658596	      0.00000000	      0.00000000	     27.46775613	    -15.56641634	     -6.76965465	    -68.52706349	    -14.43015159	      0.00000000	      0.00000000	      0.00000000	      0.00000000	      0.00000000
